<svg width="24" height="24" viewBox="0 0 24 24" fill="white" xmlns="http://www.w3.org/2000/svg">
<g id="Change">
<path id="Vector" d="M16.1428 3C16.3417 3 16.5324 3.07902 16.6731 3.21967C16.8137 3.36032 16.8928 3.55109 16.8928 3.75L16.8928 16.5L19.4135 16.5C19.5302 16.5015 19.6438 16.5373 19.7403 16.6029C19.8367 16.6686 19.9117 16.7612 19.9558 16.8691C20 16.9771 20.0114 17.0957 19.9885 17.2101C19.9657 17.3246 19.9097 17.4297 19.8275 17.5125L16.5568 20.826C16.5028 20.8806 16.4386 20.924 16.3678 20.9535C16.297 20.9831 16.221 20.9984 16.1443 20.9984C16.0675 20.9984 15.9915 20.9831 15.9207 20.9535C15.8499 20.924 15.7857 20.8806 15.7318 20.826L12.458 17.5125C12.3758 17.4297 12.3198 17.3246 12.297 17.2101C12.2742 17.0957 12.2855 16.9771 12.3297 16.8691C12.3738 16.7612 12.4488 16.6686 12.5453 16.6029C12.6417 16.5373 12.7554 16.5015 12.872 16.5L15.3928 16.5L15.3928 3.75C15.3928 3.55109 15.4718 3.36032 15.6124 3.21967C15.7531 3.07902 15.9438 3 16.1428 3ZM8.39275 20.2497L8.39275 7.49968L10.9135 7.49968C11.0302 7.49821 11.1438 7.46242 11.2402 7.39677C11.3367 7.33113 11.4117 7.23853 11.4558 7.13054C11.5 7.02255 11.5114 6.90395 11.4885 6.78954C11.4657 6.67513 11.4097 6.56997 11.3275 6.48718L8.05675 3.17368C8.00283 3.11908 7.9386 3.07572 7.86779 3.04613C7.79698 3.01654 7.721 3.00131 7.64425 3.00131C7.56751 3.00131 7.49153 3.01654 7.42072 3.04613C7.34991 3.07572 7.28568 3.11908 7.23175 3.17368L3.95801 6.48718C3.8758 6.56997 3.8198 6.67513 3.79697 6.78954C3.77415 6.90395 3.78553 7.02255 3.82969 7.13054C3.87384 7.23853 3.94881 7.33113 4.04526 7.39677C4.14171 7.46242 4.25535 7.49821 4.372 7.49968L6.89275 7.49968L6.89275 20.2497C6.89275 20.4486 6.97177 20.6394 7.11242 20.78C7.25308 20.9207 7.44384 20.9997 7.64275 20.9997C7.84167 20.9997 8.03243 20.9207 8.17308 20.78C8.31374 20.6394 8.39275 20.4486 8.39275 20.2497Z" fill="white"/>
</g>
</svg>
