<svg width="24" height="24" viewBox="0 0 24 24" fill="none" xmlns="http://www.w3.org/2000/svg">
<path fill-rule="evenodd" clip-rule="evenodd" d="M16.4997 3H7.49989C5.02517 3 3 5.02517 3 7.49989V16.5001C3 18.9742 5.02517 21 7.49989 21H16.4997C18.9744 21 20.9996 18.9742 20.9996 16.5001V7.49989C20.9996 5.02517 18.9744 3 16.4997 3ZM19.4995 16.5001C19.4995 18.1538 18.1543 19.5 16.4997 19.5H7.49989C5.84596 19.5 4.50004 18.1538 4.50004 16.5001V7.49989C4.50004 5.84574 5.84596 4.50004 7.49989 4.50004H16.4997C18.1543 4.50004 19.4995 5.84574 19.4995 7.49989V16.5001ZM16.8754 8.24995C17.4967 8.24995 18.0004 7.74628 18.0004 7.12497C18.0004 6.50367 17.4967 6 16.8754 6C16.2541 6 15.7505 6.50367 15.7505 7.12497C15.7505 7.74628 16.2541 8.24995 16.8754 8.24995ZM7.49991 11.9999C7.49991 9.51436 9.51405 7.5 11.9998 7.5C14.4848 7.5 16.4997 9.51436 16.4997 11.9999C16.4997 14.4845 14.4848 16.5002 11.9998 16.5002C9.51405 16.5002 7.49991 14.4845 7.49991 11.9999ZM8.99995 11.9999C8.99995 13.657 10.3431 15.0002 11.9998 15.0002C13.6565 15.0002 14.9997 13.657 14.9997 11.9999C14.9997 10.3428 13.6565 9.00004 11.9998 9.00004C10.3431 9.00004 8.99995 10.3428 8.99995 11.9999Z" fill="white"/>
</svg>
