<svg width="25" height="24" viewBox="0 0 25 24" fill="none" xmlns="http://www.w3.org/2000/svg">
<path d="M21.3322 12.1553C21.2872 11.0753 20.3871 10.2202 19.2845 10.2427C18.7895 10.2652 18.3395 10.4677 18.0019 10.7828C16.4718 9.72519 14.6492 9.16265 12.7816 9.11764L13.6591 4.90987L16.5618 5.4949C16.6518 6.23745 17.3044 6.77749 18.0469 6.68748C18.7895 6.59748 19.3295 5.94493 19.2395 5.20238C19.1495 4.45984 18.497 3.9198 17.7544 4.00981C17.3269 4.05481 16.9444 4.30232 16.7419 4.66235L13.4341 4.00981C13.2091 3.9648 12.9841 4.09981 12.9391 4.32483L11.949 9.02764C10.0589 9.05014 8.23629 9.63518 6.66118 10.6927C5.87363 9.9502 4.61354 9.9727 3.871 10.7828C3.12845 11.5703 3.15095 12.8304 3.961 13.5729C4.11851 13.708 4.29852 13.843 4.50104 13.933C4.47854 14.1355 4.47854 14.338 4.50104 14.518C4.50104 17.5557 8.03377 20.0309 12.3991 20.0309C16.7644 20.0309 20.2971 17.5782 20.2971 14.518C20.3196 14.3155 20.3196 14.113 20.2971 13.933C20.9271 13.6179 21.3547 12.9204 21.3322 12.1553ZM7.76376 13.5279C7.76376 12.7854 8.3713 12.1778 9.11385 12.1778C9.85639 12.1778 10.4639 12.7854 10.4639 13.5279C10.4639 14.2705 9.85639 14.878 9.11385 14.878C8.3713 14.878 7.76376 14.2705 7.76376 13.5279ZM15.6393 17.2632C14.6717 17.9832 13.5016 18.3658 12.3091 18.2983C11.1165 18.3433 9.9239 17.9832 8.97884 17.2632C8.84383 17.1057 8.86633 16.8807 9.02384 16.7457C9.15885 16.6331 9.33886 16.6331 9.49637 16.7457C10.3064 17.3307 11.2965 17.6457 12.3091 17.6007C13.3216 17.6457 14.3117 17.3757 15.1442 16.7682C15.3018 16.6331 15.5268 16.6331 15.6843 16.7682C15.8193 16.9257 15.8193 17.1507 15.6843 17.3082V17.2632H15.6393ZM15.4143 14.9455C14.6717 14.9455 14.0642 14.338 14.0642 13.5954C14.0642 12.8529 14.6717 12.2454 15.4143 12.2454C16.1568 12.2454 16.7644 12.8529 16.7644 13.5954C16.7869 14.338 16.2243 14.968 15.4593 14.9905C15.4368 14.9905 15.4143 14.9905 15.3918 14.9905L15.4143 14.9455Z" fill="white"/>
</svg>
