<svg width="25" height="24" viewBox="0 0 25 24" fill="none" xmlns="http://www.w3.org/2000/svg">
<path d="M4.77054 11.4818C4.77054 11.4818 12.7315 8.21457 15.4925 7.06412C16.5509 6.60397 20.1402 5.13138 20.1402 5.13138C20.1402 5.13138 21.7969 4.48718 21.6588 6.05173C21.6128 6.696 21.2447 8.9508 20.8765 11.3897C20.3243 14.841 19.7261 18.6144 19.7261 18.6144C19.7261 18.6144 19.6341 19.6728 18.8518 19.8569C18.0695 20.041 16.781 19.2127 16.5509 19.0286C16.3668 18.8906 13.0996 16.8198 11.9032 15.8074C11.5811 15.5313 11.2129 14.9791 11.9492 14.3348C13.6058 12.8163 15.5845 10.9296 16.781 9.73315C17.3332 9.18091 17.8854 7.89244 15.5845 9.45699C12.3173 11.7119 9.09615 13.8287 9.09615 13.8287C9.09615 13.8287 8.35986 14.2888 6.97936 13.8746C5.5988 13.4605 3.9882 12.9083 3.9882 12.9083C3.9882 12.9083 2.88385 12.2181 4.77054 11.4818Z" fill="white"/>
</svg>
