<svg width="25" height="24" viewBox="0 0 25 24" fill="none" xmlns="http://www.w3.org/2000/svg">
<path d="M20.9621 7.97205C20.7547 7.20092 20.1467 6.59304 19.3757 6.3854C17.9672 6 12.3328 6 12.3328 6C12.3328 6 6.69868 6 5.29012 6.37079C4.53393 6.57821 3.91111 7.20103 3.70369 7.97205C3.33301 9.3805 3.33301 12.3014 3.33301 12.3014C3.33301 12.3014 3.33301 15.2371 3.70369 16.6308C3.91133 17.4019 4.51909 18.0097 5.29023 18.2174C6.71351 18.6029 12.333 18.6029 12.333 18.6029C12.333 18.6029 17.9672 18.6029 19.3757 18.2321C20.1468 18.0246 20.7547 17.4167 20.9624 16.6457C21.3329 15.2371 21.3329 12.3163 21.3329 12.3163C21.3329 12.3163 21.3478 9.3805 20.9621 7.97205ZM10.539 14.9999V9.60297L15.2242 12.3014L10.539 14.9999Z" fill="white"/>
</svg>
