<svg width="24" height="24" viewBox="0 0 24 24" fill="none" xmlns="http://www.w3.org/2000/svg">
<g id="hackenai-hai-logo 1" clip-path="url(#clip0_108_6551)">
<path id="Vector" d="M22.4009 0V4.8H20.8019V0H19.2028V4.8H17.6037V0H16.0047V4.8H8.00094V0H6.40187V4.8V6.39906H22.4009V7.99813H20.8019H19.2028H4.8V0H3.20094V8.00094H1.59906V0H0V8.00094V9.6V17.6009H1.59906V12.8009H3.19813V17.6009H4.79719V12.8009H6.39625V17.6009H7.99532V12.8009H15.9963V17.6009H17.5953V12.8009V11.2019H4.8H3.20094H1.59906V9.60281H3.19813H4.79719H19.1972V17.6037H20.7963V9.6H22.3953V17.6009H24V9.6V8.00094V6.40187V4.80281V0H22.4009Z" fill="white"/>
<path id="Vector_2" d="M2.74286 21.4848V22.3982H0.685714V21.4848H0V24H0.685714V23.0867H2.74286V24H3.42857V21.4848H2.74286Z" fill="white"/>
<path id="Vector_3" d="M15.7717 23.0867H15.0859V24H15.7717V23.0867Z" fill="white"/>
<path id="Vector_4" d="M15.7713 21.4848H15.0856V22.3982H13.0285V21.4848H12.3428V24H13.0285V23.0867H15.0856L15.7713 22.401V21.4848Z" fill="white"/>
<path id="Vector_5" d="M7.08475 21.4848H4.11426V24H4.79997V23.0867H6.85712V24H7.54283V21.4848H7.08475ZM4.79997 22.401V22.1733H6.85712V22.401H4.79997Z" fill="white"/>
<path id="Vector_6" d="M11.6571 22.1705V21.4848H8.91423H8.6866H8.22852V24H8.6866H8.91423H11.6571V23.3143H8.91423V22.1705H11.6571Z" fill="white"/>
<path id="Vector_7" d="M19.8856 22.1705V21.4848H17.1427H16.9151H16.457V24H16.9151H17.1427H19.8856V23.3143H17.1427V23.0867H19.8856V22.401H17.1427V22.1733H19.8856V22.1705Z" fill="white"/>
<path id="Vector_8" d="M23.3141 21.4848V23.0839L21.257 21.4848H20.5713V24H21.257V22.401L23.3141 24H23.9999V21.4848H23.3141Z" fill="white"/>
</g>
<defs>
<clipPath id="clip0_108_6551">
<rect width="24" height="24" fill="white"/>
</clipPath>
</defs>
</svg>
