<svg width="164" height="32" viewBox="0 0 164 32" fill="none" xmlns="http://www.w3.org/2000/svg">
<path d="M42.6905 10.8751C43.5146 10.8751 44.2191 11.0124 44.8066 11.2896C45.3916 11.5667 45.8443 11.9634 46.1648 12.477C46.4853 12.9932 46.6455 13.6136 46.6455 14.3383C46.6455 15.0629 46.4853 15.6859 46.1648 16.1995C45.8443 16.7157 45.3916 17.1098 44.8066 17.387C44.2216 17.6641 43.5146 17.8014 42.6905 17.8014H40.4294V21.6079H38.1836V10.8726H42.6905V10.8751ZM42.3497 16.0317C43.0211 16.0317 43.5273 15.8893 43.863 15.602C44.1987 15.3147 44.3666 14.8951 44.3666 14.3408C44.3666 13.7865 44.1987 13.3542 43.863 13.072C43.5273 12.7898 43.0211 12.6499 42.3497 12.6499H40.4294V16.0317H42.3497Z" fill="white"/>
<path d="M57.661 10.8752V17.382C57.661 18.8466 57.2693 19.9451 56.4885 20.6748C55.7076 21.4071 54.5682 21.7733 53.0727 21.7733C51.5772 21.7733 50.4377 21.4071 49.6569 20.6748C48.8761 19.9425 48.4844 18.8441 48.4844 17.382V10.8752H50.7302V17.2829C50.7302 18.183 50.9235 18.8492 51.3075 19.284C51.6916 19.7188 52.2817 19.9349 53.0727 19.9349C53.8637 19.9349 54.4487 19.7188 54.8302 19.284C55.2091 18.8492 55.3999 18.183 55.3999 17.2829V10.8752H57.661Z" fill="white"/>
<path d="M62.4919 19.8052H68.1535V21.6106H60.2461V10.8752H62.4919V19.8052Z" fill="white"/>
<path d="M73.9461 10.7124C74.9227 10.7124 75.7799 10.8802 76.5174 11.2159C77.255 11.5515 77.8832 12.0524 78.4046 12.711L77.1507 14.1578C76.7056 13.5933 76.2199 13.1788 75.6934 12.9144C75.1669 12.6499 74.5565 12.5177 73.8621 12.5177C73.4069 12.5177 73.0304 12.5762 72.7303 12.6957C72.4302 12.8152 72.214 12.9729 72.0792 13.1687C71.9444 13.3644 71.8757 13.5806 71.8757 13.8196C71.8757 14.112 71.9902 14.3586 72.2165 14.5595C72.4455 14.7604 72.8346 14.9257 73.389 15.0554L75.3907 15.5105C76.4538 15.7495 77.2143 16.1055 77.6772 16.5759C78.1376 17.0488 78.369 17.6565 78.369 18.4066C78.369 19.111 78.1834 19.7161 77.8146 20.2196C77.4458 20.7231 76.9295 21.1095 76.2682 21.374C75.6069 21.6384 74.8464 21.7732 73.9918 21.7732C73.2441 21.7732 72.5574 21.6842 71.9342 21.5037C71.3111 21.3231 70.7541 21.079 70.2658 20.7637C69.7774 20.4484 69.3705 20.0874 69.0449 19.6729L70.3141 18.16C70.5633 18.5058 70.8736 18.816 71.2424 19.0881C71.6112 19.3602 72.0309 19.5737 72.5039 19.7314C72.977 19.889 73.473 19.9679 73.9918 19.9679C74.4369 19.9679 74.8134 19.917 75.1237 19.8128C75.4339 19.7085 75.6654 19.5636 75.8231 19.3729C75.9808 19.1822 76.0596 18.9533 76.0596 18.6813C76.0596 18.4092 75.9655 18.1575 75.7748 17.9566C75.584 17.7557 75.2356 17.6006 74.7243 17.4938L72.5446 17.0056C71.9164 16.853 71.3772 16.6573 70.927 16.4132C70.4769 16.1691 70.136 15.8538 69.902 15.4698C69.6681 15.0859 69.5536 14.6256 69.5536 14.0942C69.5536 13.456 69.7266 12.8788 70.075 12.3702C70.4209 11.8617 70.9245 11.4574 71.5807 11.1599C72.2369 10.8624 73.0253 10.7124 73.9486 10.7124H73.9461Z" fill="white"/>
<path d="M80.5045 21.6106V10.8752H88.5569V12.6806H82.7478V15.3479H87.3208V17.0718H82.7478V19.8052H88.7833V21.6106H80.502H80.5045Z" fill="white"/>
<path d="M93.0446 19.8052H98.7063V21.6106H90.7988V10.8752H93.0446V19.8052Z" fill="white"/>
<path d="M109.902 21.6106H107.575L106.68 18.9916H102.564L101.669 21.6106H99.375L103.297 10.8752H105.98L109.902 21.6106ZM103.068 17.3337H106.176L104.614 12.6501L103.068 17.3337Z" fill="white"/>
<path d="M120.054 10.8752V17.382C120.054 18.8466 119.662 19.9451 118.881 20.6748C118.1 21.4071 116.961 21.7733 115.465 21.7733C113.97 21.7733 112.83 21.4071 112.049 20.6748C111.269 19.9425 110.877 18.8441 110.877 17.382V10.8752H113.123V17.2829C113.123 18.183 113.316 18.8492 113.7 19.284C114.084 19.7188 114.674 19.9349 115.465 19.9349C116.256 19.9349 116.841 19.7188 117.223 19.284C117.602 18.8492 117.792 18.183 117.792 17.2829V10.8752H120.054Z" fill="white"/>
<path d="M131.866 10.8751V21.6104H129.294L125.535 15.2994L124.607 13.5424H124.591L124.658 15.396V21.6079H122.641V10.8726H125.194L128.953 17.1683L129.882 18.9406H129.915L129.849 17.0869V10.8726H131.866V10.8751Z" fill="white"/>
<path d="M143.855 18.6509C143.649 19.345 143.324 19.9248 142.879 20.3901C142.434 20.8554 141.907 21.2038 141.302 21.4301C140.694 21.6564 140.028 21.7708 139.3 21.7708C138.237 21.7708 137.319 21.5496 136.543 21.1046C135.767 20.6596 135.172 20.0265 134.753 19.2027C134.336 18.3788 134.127 17.3922 134.127 16.2429C134.127 15.0936 134.336 14.1071 134.753 13.2832C135.17 12.4594 135.767 11.8263 136.543 11.3813C137.319 10.9363 138.227 10.7151 139.267 10.7151C140.005 10.7151 140.671 10.8168 141.269 11.0151C141.867 11.216 142.373 11.5237 142.79 11.933C143.207 12.345 143.515 12.8662 143.708 13.4943L141.673 14.3562C141.49 13.7053 141.208 13.2425 140.826 12.9654C140.447 12.6882 139.959 12.5509 139.361 12.5509C138.764 12.5509 138.263 12.6908 137.823 12.973C137.382 13.2553 137.044 13.6697 136.805 14.2164C136.566 14.7631 136.447 15.4394 136.447 16.2404C136.447 17.0413 136.558 17.705 136.78 18.2568C137.001 18.8085 137.329 19.2281 137.764 19.5103C138.199 19.7926 138.728 19.9324 139.359 19.9324C139.944 19.9324 140.452 19.7748 140.88 19.4595C141.307 19.1442 141.61 18.6687 141.783 18.0279L143.848 18.6458L143.855 18.6509Z" fill="white"/>
<path d="M148.021 10.8752V21.6106H145.775V10.8752H148.021ZM153.927 15.2843V17.0896H146.9V15.2843H153.927ZM155 10.8752V21.6106H152.754V10.8752H155Z" fill="white"/>
<path d="M4.57067 21.8165L13.7147 15.9987L0 32L9.144 26.1823L12.9529 29.8184L16.7618 26.1823L19.7823 23.2989C20.2883 22.8157 20.5707 22.1623 20.5707 21.4808V18.1829L22.5257 16.3166C27.2216 11.8338 30.5057 6.17878 32 0C25.5275 1.42646 19.6038 4.55908 14.9079 9.04442L12.9529 10.9108H9.49825C8.78442 10.9108 8.09988 11.1828 7.59381 11.6634L4.57333 14.5468L0.764441 18.1829L4.57333 21.819L4.57067 21.8165Z" fill="#0ED89E"/>
</svg>
