<svg width="28" height="28" viewBox="0 0 28 28" fill="none" xmlns="http://www.w3.org/2000/svg">
<path d="M21.2775 7.16086C19.939 6.54673 18.5037 6.09425 17.003 5.83507C16.9756 5.83007 16.9483 5.84258 16.9343 5.86756C16.7497 6.19589 16.5452 6.62417 16.402 6.96083C14.7879 6.71916 13.1821 6.71916 11.6011 6.96083C11.4579 6.61671 11.246 6.19589 11.0605 5.86756C11.0465 5.8434 11.0191 5.83089 10.9918 5.83507C9.49197 6.09339 8.05667 6.54587 6.71734 7.16086C6.70573 7.16587 6.69581 7.17419 6.6892 7.18502C3.96675 11.2523 3.22092 15.2197 3.58678 19.1378C3.58842 19.157 3.59921 19.1753 3.6141 19.187C5.41029 20.5061 7.15026 21.3069 8.85787 21.8377C8.88518 21.846 8.91414 21.8361 8.93153 21.8135C9.33545 21.2619 9.69553 20.6803 10.0043 20.0686C10.0225 20.0328 10.0051 19.9903 9.96783 19.9761C9.39669 19.7595 8.85286 19.4953 8.32971 19.1954C8.28832 19.1712 8.285 19.112 8.32311 19.0837C8.43319 19.0012 8.54332 18.9153 8.64844 18.8287C8.66747 18.8128 8.69397 18.8095 8.71632 18.8195C12.1531 20.3886 15.8738 20.3886 19.2701 18.8195C19.2924 18.8087 19.3189 18.812 19.3388 18.8278C19.4439 18.9145 19.554 19.0011 19.6649 19.0836C19.703 19.112 19.7005 19.1712 19.6591 19.1953C19.136 19.5011 18.5922 19.7594 18.0202 19.9753C17.983 19.9894 17.9664 20.0328 17.9846 20.0686C18.3 20.6794 18.6601 21.261 19.0565 21.8127C19.0731 21.836 19.1029 21.846 19.1302 21.8377C20.8461 21.3069 22.5861 20.506 24.3823 19.1869C24.398 19.1753 24.4079 19.1578 24.4096 19.1386C24.8475 14.6088 23.6762 10.674 21.3047 7.1858C21.2989 7.17419 21.289 7.16587 21.2775 7.16086ZM10.5176 16.7521C9.48286 16.7521 8.63027 15.8022 8.63027 14.6355C8.63027 13.4689 9.46629 12.5189 10.5176 12.5189C11.577 12.5189 12.4214 13.4772 12.4048 14.6355C12.4048 15.8022 11.5688 16.7521 10.5176 16.7521ZM17.4954 16.7521C16.4608 16.7521 15.6082 15.8022 15.6082 14.6355C15.6082 13.4689 16.4442 12.5189 17.4954 12.5189C18.555 12.5189 19.3993 13.4772 19.3827 14.6355C19.3827 15.8022 18.555 16.7521 17.4954 16.7521Z" fill="#2AA0F8"/>
</svg>
