<svg width="28" height="28" viewBox="0 0 28 28" fill="none" xmlns="http://www.w3.org/2000/svg">
<path d="M22.5509 15.2823C20.8528 16.2431 19.0653 17.0475 17.5236 18.1647C15.4233 19.7064 13.5465 19.8628 11.4462 18.187C10.4184 17.3603 9.12246 16.8687 7.98295 16.1537C7.67014 15.9527 7.33499 15.6175 7.22327 15.2823C7.11155 14.9919 7.17858 14.5003 7.37968 14.2769C7.51374 14.1428 8.04998 14.2322 8.34045 14.3663C9.90449 15.2153 11.4909 16.042 12.9879 17.0028C14.0604 17.6954 14.9094 17.6061 15.9596 16.9805C18.1492 15.6398 20.4059 14.4333 22.6403 13.1821C23.9362 12.4447 24.5171 12.7799 24.4948 14.2546C24.4501 18.6786 25.0087 18.0306 21.1209 20.2203C19.6015 21.0693 18.0598 21.9184 16.5405 22.7674C15.1552 23.5494 13.7922 23.5494 12.407 22.7898C10.396 21.6726 8.34044 20.6224 6.39656 19.3935C2.48646 16.8911 2.55349 11.3052 6.48594 8.86978C8.6756 7.52917 10.9546 6.34497 13.1666 5.04905C14.0604 4.5128 14.9094 4.55749 15.7808 5.07139C18.1045 6.412 20.4506 7.70792 22.752 9.02618C23.8468 9.67414 23.8691 10.3668 22.7743 10.9924C20.5176 12.2883 18.2386 13.5396 15.9819 14.8578C14.9094 15.4834 13.9263 15.5058 12.8538 14.8355C11.4015 13.9417 9.90448 13.115 8.40747 12.2883C6.68703 11.3276 5.32408 12.1319 5.25705 14.1205C5.19002 15.908 5.90501 17.1815 7.49139 18.0306C9.27887 18.9914 11.0663 20.0192 12.8091 21.0693C13.904 21.7173 14.9094 21.762 16.0489 21.0693C17.8141 19.9968 19.6686 19.0137 21.4784 17.9859C22.8637 17.2039 22.9307 17.0475 22.5509 15.2823Z" fill="#2AA0F8"/>
</svg>
