<svg width="28" height="28" viewBox="0 0 28 28" fill="none" xmlns="http://www.w3.org/2000/svg">
<path fill-rule="evenodd" clip-rule="evenodd" d="M19.2496 3.5H8.74987C5.8627 3.5 3.5 5.8627 3.5 8.74987V19.2501C3.5 22.1365 5.8627 24.5 8.74987 24.5H19.2496C22.1368 24.5 24.4995 22.1365 24.4995 19.2501V8.74987C24.4995 5.8627 22.1368 3.5 19.2496 3.5ZM22.7494 19.2501C22.7494 21.1795 21.18 22.75 19.2496 22.75H8.74987C6.82029 22.75 5.25004 21.1795 5.25004 19.2501V8.74987C5.25004 6.82003 6.82029 5.25004 8.74987 5.25004H19.2496C21.18 5.25004 22.7494 6.82003 22.7494 8.74987V19.2501ZM19.688 9.62494C20.4129 9.62494 21.0005 9.03732 21.0005 8.31247C21.0005 7.58761 20.4129 7 19.688 7C18.9631 7 18.3755 7.58761 18.3755 8.31247C18.3755 9.03732 18.9631 9.62494 19.688 9.62494ZM8.74989 13.9999C8.74989 11.1001 11.0997 8.75 13.9998 8.75C16.899 8.75 19.2496 11.1001 19.2496 13.9999C19.2496 16.8986 16.899 19.2503 13.9998 19.2503C11.0997 19.2503 8.74989 16.8986 8.74989 13.9999ZM10.4999 13.9999C10.4999 15.9331 12.067 17.5002 13.9998 17.5002C15.9325 17.5002 17.4996 15.9331 17.4996 13.9999C17.4996 12.0666 15.9325 10.5 13.9998 10.5C12.067 10.5 10.4999 12.0666 10.4999 13.9999Z" fill="#2AA0F8"/>
</svg>
