<svg width="28" height="28" viewBox="0 0 28 28" fill="none" xmlns="http://www.w3.org/2000/svg">
<path d="M24.5 8.26559H23.6694C23.3611 8.26559 22.925 8.7071 22.925 8.98969V19.2337C22.925 19.5166 23.3611 19.9024 23.6694 19.9024H24.5V22.334H16.975V19.9024H18.55V9.13395H18.4728L14.7949 22.334H11.9474L8.31687 9.13395H8.225V19.9024H9.8V22.334H3.5V19.9024H4.30678C4.63892 19.9024 5.075 19.5166 5.075 19.2337V8.9896C5.075 8.70701 4.63892 8.2655 4.30678 8.2655H3.5V5.83398H11.3778L13.9642 15.3866H14.0356L16.6458 5.83398H24.5V8.26559Z" fill="#2AA0F8"/>
</svg>
