<svg width="28" height="28" viewBox="0 0 28 28" fill="none" xmlns="http://www.w3.org/2000/svg">
<path d="M4.78747 13.396C4.78747 13.396 14.0753 9.58432 17.2964 8.24212C18.5313 7.70528 22.7188 5.98726 22.7188 5.98726C22.7188 5.98726 24.6516 5.23569 24.4905 7.06101C24.4367 7.81265 24.0073 10.4433 23.5778 13.2887C22.9335 17.3152 22.2356 21.7175 22.2356 21.7175C22.2356 21.7175 22.1282 22.9523 21.2156 23.167C20.3029 23.3818 18.7996 22.4155 18.5313 22.2007C18.3165 22.0396 14.5047 19.6237 13.1089 18.4426C12.7331 18.1205 12.3036 17.4763 13.1625 16.7246C15.0953 14.953 17.4038 12.7518 18.7996 11.356C19.4439 10.7117 20.0881 9.2085 17.4038 11.0338C13.5921 13.6645 9.83402 16.1341 9.83402 16.1341C9.83402 16.1341 8.97501 16.6709 7.36443 16.1877C5.75378 15.7046 3.87474 15.0603 3.87474 15.0603C3.87474 15.0603 2.58634 14.255 4.78747 13.396Z" fill="#2AA0F8"/>
</svg>
