<svg width="28" height="28" viewBox="0 0 28 28" fill="none" xmlns="http://www.w3.org/2000/svg">
<path d="M24.5 7.84163C23.7271 8.19297 22.8939 8.42385 22.0306 8.53427C22.914 8.00224 23.5966 7.15903 23.9178 6.14517C23.0846 6.64708 22.1611 6.99842 21.1874 7.19919C20.3944 6.3359 19.2801 5.83398 18.0153 5.83398C15.6563 5.83398 13.729 7.76133 13.729 10.1404C13.729 10.4817 13.7691 10.813 13.8394 11.1241C10.2658 10.9434 7.08365 9.22691 4.96558 6.62701C4.59417 7.25941 4.38337 8.00224 4.38337 8.78523C4.38337 10.2809 5.13623 11.606 6.30067 12.3588C5.58795 12.3588 4.92543 12.1581 4.34321 11.8569V11.887C4.34321 13.975 5.82887 15.7217 7.79637 16.1131C7.16469 16.286 6.50153 16.3101 5.85899 16.1834C6.13163 17.0392 6.6656 17.7879 7.38582 18.3245C8.10604 18.8611 8.97631 19.1584 9.87428 19.1748C8.35211 20.3798 6.46529 21.0312 4.5239 21.0218C4.1826 21.0218 3.8413 21.0018 3.5 20.9616C5.40727 22.1863 7.67591 22.899 10.1052 22.899C18.0153 22.899 22.3619 16.334 22.3619 10.6423C22.3619 10.4516 22.3619 10.2709 22.3518 10.0802C23.195 9.47787 23.9178 8.71496 24.5 7.84163Z" fill="#2AA0F8"/>
</svg>
